<svg width="171" height="35" viewBox="0 0 171 35" fill="none" xmlns="http://www.w3.org/2000/svg">
<path d="M6.86305 5.61029C6.86068 4.66201 7.1387 3.73434 7.66193 2.94474C8.18516 2.15514 8.93006 1.53911 9.80232 1.17465C10.6746 0.8102 11.635 0.713709 12.5619 0.897395C13.4889 1.08108 14.3406 1.53668 15.0094 2.20652C15.6782 2.87635 16.1339 3.73031 16.3189 4.66025C16.5039 5.59019 16.4097 6.5543 16.0484 7.43051C15.6871 8.30673 15.0749 9.05566 14.2893 9.58246C13.5037 10.1093 12.58 10.3903 11.6352 10.3899C11.0091 10.3907 10.389 10.2676 9.81033 10.0278C9.23164 9.78805 8.70571 9.43618 8.26255 8.99233C7.81939 8.54848 7.46771 8.02135 7.22758 7.44105C6.98745 6.86075 6.86358 6.23865 6.86305 5.61029Z" fill="white"/>
<path d="M14.6182 13.5181C14.6161 12.6125 14.8696 11.7247 15.3494 10.9576C15.8291 10.1905 16.5155 9.57546 17.329 9.18361C18.1426 8.79177 19.0501 8.63916 19.9464 8.74345C20.8428 8.84773 21.6915 9.20466 22.3941 9.7729C23.0968 10.3411 23.6248 11.0975 23.917 11.9544C24.2092 12.8113 24.2536 13.7337 24.0452 14.6149C23.8367 15.4961 23.3839 16.3 22.7392 16.9337C22.0944 17.5673 21.2841 18.0048 20.4019 18.1954C19.8961 17.1394 19.1036 16.2482 18.1153 15.6245C17.1271 15.0008 15.9835 14.6699 14.8161 14.6699H14.7581C14.6646 14.2932 14.6176 13.9064 14.6182 13.5181Z" fill="white"/>
<path d="M10.036 20.8659C10.0333 19.9164 10.3112 18.9875 10.8348 18.1966C11.3584 17.4058 12.1039 16.7887 12.9771 16.4234C13.8503 16.0582 14.8119 15.9612 15.7401 16.1447C16.6683 16.3282 17.5213 16.784 18.1912 17.4544C18.8611 18.1248 19.3178 18.9797 19.5034 19.9107C19.6889 20.8417 19.5951 21.8071 19.2337 22.6845C18.8723 23.562 18.2597 24.3121 17.4733 24.8399C16.6869 25.3677 15.7622 25.6495 14.8161 25.6495C14.1893 25.6505 13.5684 25.5276 12.9889 25.2877C12.4093 25.0479 11.8826 24.6958 11.4387 24.2516C10.9948 23.8074 10.6424 23.2797 10.4018 22.6988C10.1611 22.1178 10.0368 21.495 10.036 20.8659ZM0.0159849 26.7109C0.0159849 23.4162 3.63256 20.5809 8.81251 19.3269C8.73081 19.6469 8.67467 19.973 8.64458 20.302C6.40946 21.1207 4.97804 22.3708 4.97804 23.7774C4.97804 26.2414 9.37628 28.2379 14.8061 28.2379C20.236 28.2379 24.6343 26.2313 24.6343 23.7774C24.6343 22.3728 23.2068 21.1227 20.9737 20.306C20.9444 19.9777 20.8889 19.6523 20.8078 19.3329C25.9817 20.589 29.5883 23.4202 29.5883 26.7109C29.5883 31.1714 22.9669 34.7872 14.7942 34.7872C6.62138 34.7872 0 31.1755 0 26.7109" fill="white"/>
<path d="M41.5884 10.5993H48.044C50.8409 10.5993 52.3925 11.6678 52.3925 14.1477C52.3925 15.6396 51.7029 16.567 50.5344 17.1719C52.2201 17.6759 53.0438 19.0267 53.0438 20.8211C53.0438 23.684 50.7642 24.9945 48.2165 24.9945H41.5884V10.5993ZM44.5959 16.4259H47.6609C48.7528 16.4259 49.4808 15.8816 49.4808 14.7122C49.4808 13.563 48.7528 13.059 47.4502 13.059H44.5959V16.4259ZM44.5959 22.5348H47.8333C49.2317 22.5348 50.0363 21.9299 50.0363 20.6396C50.0363 19.2485 49.2509 18.5832 47.8908 18.5832H44.5959V22.5348Z" fill="white"/>
<path d="M59.3482 14.2888C62.2408 14.2888 63.6775 15.317 63.6775 17.2525V22.7767C63.6775 23.6033 63.7733 24.5711 64.0223 24.9945H61.2638C61.168 24.6719 61.0914 24.3291 61.0723 23.9864C60.306 24.8332 59.1375 25.2767 57.7391 25.2767C55.7085 25.2767 54.3676 24.1678 54.3676 22.1517C54.3676 21.1436 54.6741 20.438 55.2296 19.934C55.8617 19.3695 56.7812 19.067 58.4287 18.8856C60.1911 18.684 60.9573 18.5227 60.9573 17.5953C60.9573 16.4057 60.1336 16.2041 59.2141 16.2041C58.0839 16.2041 57.49 16.688 57.3943 17.7767H54.6741C54.789 15.4985 56.5705 14.2888 59.3482 14.2888ZM57.0878 22.0307C57.0878 22.8574 57.5667 23.3614 58.7543 23.3614C60.2102 23.3614 60.9573 22.5348 60.9573 21.0025V19.8936C60.7083 20.1356 60.2294 20.2767 59.3099 20.3977C57.9115 20.5791 57.0878 20.9017 57.0878 22.0307Z" fill="white"/>
<path d="M71.4783 14.2888C73.9878 14.2888 75.0797 15.5791 75.0797 18.5025V24.9945H72.3595V19.0872C72.3595 17.3735 71.8806 16.5469 70.6163 16.5469C68.9305 16.5469 68.5091 17.7162 68.5091 19.5711V24.9945H65.7889V14.5711H68.375V16.0227H68.4325C69.0838 14.9138 70.1948 14.2888 71.4783 14.2888Z" fill="white"/>
<path d="M81.7226 14.2888C84.845 14.2888 86.55 16.8695 86.55 19.9541C86.55 20.1154 86.5308 20.4783 86.5308 20.4783H79.3855C79.4621 22.2727 80.2475 23.1195 81.7992 23.1195C82.8336 23.1195 83.7531 22.4945 83.9639 21.7686H86.3584C85.6305 24.1275 84.0979 25.2767 81.7226 25.2767C78.5809 25.2767 76.6653 22.9985 76.6653 19.7928C76.6653 16.6477 78.7342 14.2888 81.7226 14.2888ZM79.3855 18.6638H83.8106C83.5424 17.0912 82.8911 16.4461 81.6268 16.4461C80.305 16.4461 79.5004 17.2928 79.3855 18.6638Z" fill="white"/>
<path d="M92.2052 14.2888C94.8871 14.2888 96.4005 15.4582 96.5729 17.6154H93.9868C93.9102 16.6074 93.2588 16.2041 92.1286 16.2041C91.075 16.2041 90.6153 16.5469 90.6153 17.1719C90.6153 17.8372 91.2091 18.1799 92.7416 18.5025C94.753 18.9259 95.481 19.2485 96.0748 19.7727C96.592 20.2566 96.8411 20.8614 96.8411 21.6477C96.8411 24.3291 94.6381 25.2767 92.3202 25.2767C89.6191 25.2767 87.7418 24.067 87.6652 21.6074H90.2513C90.2513 22.7767 91.2091 23.3614 92.3393 23.3614C93.2588 23.3614 94.1209 22.938 94.1209 22.0307C94.1209 21.2646 93.278 20.9017 91.1325 20.438C88.8337 19.934 87.8951 19.1275 87.8951 17.6356C87.8951 15.4178 89.4276 14.2888 92.2052 14.2888Z" fill="white"/>
<path d="M103.184 14.2888C105.713 14.2888 107.705 15.7404 107.839 18.2404H105.176C105.004 17.0509 104.333 16.4461 103.165 16.4461C101.517 16.4461 100.847 18.1396 100.847 19.8332C100.847 21.5469 101.517 23.1195 103.107 23.1195C104.314 23.1195 105.08 22.3936 105.272 21.0025H107.896C107.532 23.7445 105.77 25.2767 103.126 25.2767C100.042 25.2767 98.1266 22.9582 98.1266 19.934C98.1266 16.6074 100.042 14.2888 103.184 14.2888Z" fill="white"/>
<path d="M114.241 14.2888C117.383 14.2888 119.375 16.4864 119.375 19.7928C119.375 23.1598 117.287 25.2767 114.241 25.2767C111.119 25.2767 109.127 23.0791 109.127 19.7928C109.127 16.4662 111.138 14.2888 114.241 14.2888ZM111.847 19.7928C111.847 21.9098 112.69 23.1195 114.241 23.1195C115.85 23.1195 116.655 21.8493 116.655 19.7928C116.655 18.0993 116.099 16.4461 114.222 16.4461C112.709 16.4461 111.847 17.6557 111.847 19.7928Z" fill="white"/>
<path d="M125.933 10.2969C128.825 10.2969 131.009 11.9299 131.009 14.7727H129.707C129.611 12.6356 127.983 11.4662 125.952 11.4662C124.094 11.4662 122.542 12.2727 122.542 14.3291C122.542 15.8211 123.692 16.2848 124.458 16.4864L127.791 17.3533C130.435 18.0388 131.488 19.2686 131.488 21.184C131.488 22.5953 130.76 25.2969 126.259 25.2969C122.887 25.2969 120.799 23.6638 120.799 20.6195V20.2566H122.102V20.3775C122.102 23.0186 123.807 24.1275 126.527 24.1275C128.078 24.1275 130.186 23.2606 130.186 21.2041C130.186 19.8936 129.228 19.0872 127.446 18.6235L124.324 17.817C122.293 17.2928 121.24 16.2848 121.24 14.3493C121.24 12.7162 122.312 10.2969 125.933 10.2969Z" fill="white"/>
<path d="M137.29 14.2888C140.068 14.2888 141.639 16.6074 141.639 19.8332V20.1356H134.034C134.053 22.1719 135.087 24.2283 137.29 24.2283C138.899 24.2283 139.972 23.3211 140.394 21.567H141.6C141.045 24.1074 139.627 25.2969 137.29 25.2969C134.321 25.2969 132.827 22.9783 132.827 19.7928C132.827 16.9501 134.225 14.2888 137.29 14.2888ZM134.034 19.067H140.432C140.374 17.1114 139.206 15.3574 137.271 15.3574C135.547 15.3574 134.302 16.809 134.034 19.067Z" fill="white"/>
<path d="M143.278 10.5993H144.485V24.9945H143.278V10.5993Z" fill="white"/>
<path d="M150.76 14.2888C153.537 14.2888 155.108 16.6074 155.108 19.8332V20.1356H147.503C147.522 22.1719 148.557 24.2283 150.76 24.2283C152.369 24.2283 153.441 23.3211 153.863 21.567H155.07C154.514 24.1074 153.097 25.2969 150.76 25.2969C147.79 25.2969 146.296 22.9783 146.296 19.7928C146.296 16.9501 147.695 14.2888 150.76 14.2888ZM147.503 19.067H153.901C153.844 17.1114 152.675 15.3574 150.74 15.3574C149.016 15.3574 147.771 16.809 147.503 19.067Z" fill="white"/>
<path d="M160.904 14.2888C163.241 14.2888 164.639 15.6598 164.908 17.8574H163.701C163.356 16.2041 162.398 15.3574 160.904 15.3574C158.605 15.3574 157.437 17.5953 157.437 19.7928C157.437 22.0307 158.643 24.2283 160.904 24.2283C162.321 24.2283 163.605 23.059 163.777 21.2646H164.984C164.658 23.8049 163.107 25.2969 160.904 25.2969C157.935 25.2969 156.23 22.817 156.23 19.7928C156.23 16.6477 158.03 14.2888 160.904 14.2888Z" fill="white"/>
<path d="M167.37 11.4662H168.577V14.5912H170.588V15.6598H168.577V22.7566C168.577 23.6638 168.826 24.0469 169.688 24.0469C169.899 24.0469 170.244 24.0267 170.588 23.9864V25.0751C170.129 25.0953 169.899 25.1154 169.516 25.1154C167.926 25.1154 167.37 24.5509 167.37 22.8574V15.6598H165.646V14.5912H167.37V11.4662Z" fill="white"/>
</svg>
