<svg width="20" height="20" viewBox="0 0 20 20" fill="none" xmlns="http://www.w3.org/2000/svg">
<path d="M2.35824 13.7406C3.74376 15.1276 5.58884 15.9603 7.54589 16.0817C9.50294 16.2031 11.4368 15.6049 12.9833 14.3997L18.3043 19.7192C18.493 19.9014 18.7458 20.0022 19.0081 20C19.2705 19.9977 19.5214 19.8925 19.7069 19.707C19.8925 19.5216 19.9977 19.2707 20 19.0084C20.0022 18.7461 19.9014 18.4935 19.7191 18.3048L14.3981 12.9853C15.6571 11.3701 16.2524 9.33548 16.0624 7.29654C15.8725 5.2576 14.9117 3.36788 13.376 2.01277C11.8403 0.657665 9.84534 -0.0607542 7.798 0.00402942C5.75066 0.068813 3.80515 0.911919 2.35824 2.3614C1.61061 3.10843 1.01754 3.9954 0.612902 4.97164C0.208267 5.94788 0 6.99425 0 8.05098C0 9.10771 0.208267 10.1541 0.612902 11.1303C1.01754 12.1066 1.61061 12.9935 2.35824 13.7406ZM3.77304 3.7778C4.76218 2.78897 6.06367 2.17359 7.45577 2.03651C8.84787 1.89943 10.2444 2.24912 11.4076 3.02601C12.5707 3.8029 13.4284 4.95892 13.8345 6.29711C14.2406 7.6353 14.17 9.07287 13.6348 10.3649C13.0996 11.6569 12.1328 12.7234 10.8992 13.3827C9.66563 14.0421 8.24152 14.2534 6.86953 13.9807C5.49754 13.7081 4.26257 12.9683 3.37501 11.8874C2.48746 10.8065 2.00225 9.45141 2.00204 8.05298C1.99929 7.25834 2.15443 6.47105 2.45844 5.73682C2.76246 5.00259 3.2093 4.33602 3.77304 3.7758V3.7778Z" fill="#556176"/>
</svg>
