<svg width="19" height="19" viewBox="0 0 19 19" fill="none" xmlns="http://www.w3.org/2000/svg">
<path d="M9.58871 18.797C8.378 18.8056 7.17857 18.5639 6.06571 18.087C4.99838 17.6324 4.02716 16.9792 3.20371 16.162C2.38442 15.3412 1.73384 14.3679 1.28871 13.297C0.818649 12.1768 0.580525 10.9729 0.588712 9.75801C0.573403 7.99052 1.08663 6.25878 2.06253 4.78505C3.03842 3.31132 4.43245 2.16284 6.06571 1.48701C8.3238 0.566341 10.8526 0.566341 13.1107 1.48701C14.7427 2.16528 16.1355 3.31458 17.1113 4.78816C18.087 6.26174 18.6014 7.99271 18.5887 9.76001C18.5969 10.9749 18.3588 12.1788 17.8887 13.299C17.4427 14.3701 16.7911 15.3435 15.9707 16.164C15.1473 16.9812 14.176 17.6344 13.1087 18.089C11.9966 18.5648 10.7983 18.8059 9.58871 18.797ZM9.58871 17.769C10.1664 17.15 10.6557 16.4541 11.0427 15.701C11.4549 14.8693 11.7687 13.9924 11.9777 13.088H7.21571C7.42547 13.9898 7.73714 14.8647 8.14471 15.696C8.52512 16.4527 9.01133 17.1514 9.58871 17.771V17.769ZM8.08871 17.576C7.6184 16.9547 7.223 16.28 6.91071 15.566C6.55857 14.7699 6.28851 13.9399 6.10471 13.089H2.33371C2.86391 14.2175 3.64556 15.2095 4.61871 15.989C5.65276 16.7532 6.83445 17.293 8.08871 17.576ZM11.1187 17.561C12.343 17.2901 13.4917 16.7504 14.4817 15.981C15.4808 15.2093 16.2907 14.2199 16.8497 13.088H13.0887C12.8686 13.9326 12.5831 14.7587 12.2347 15.559C11.9323 16.2638 11.5576 16.9354 11.1167 17.563L11.1187 17.561ZM1.98771 12.013H5.90871C5.84938 11.5803 5.81105 11.1823 5.79371 10.819C5.77638 10.4557 5.76805 10.102 5.76871 9.75801C5.76871 9.37534 5.77971 9.01334 5.80171 8.67201C5.82371 8.33068 5.86438 7.96134 5.92371 7.56401H1.98871C1.87659 7.91116 1.79363 8.26706 1.74071 8.628C1.68997 9.0025 1.66557 9.3801 1.66771 9.75801C1.66591 10.1462 1.6903 10.5341 1.74071 10.919C1.79251 11.2906 1.87547 11.6573 1.98871 12.015L1.98771 12.013ZM7.01272 12.013H12.1887C12.2554 11.5357 12.301 11.1293 12.3257 10.794C12.3504 10.4587 12.3614 10.113 12.3587 9.75702C12.3587 9.41702 12.3477 9.08568 12.3257 8.76301C12.3037 8.44035 12.258 8.04035 12.1887 7.56302H7.01471C6.94805 8.04035 6.90238 8.44035 6.87771 8.76301C6.85305 9.08568 6.84204 9.41702 6.84471 9.75702C6.84471 10.113 6.85571 10.4587 6.87771 10.794C6.89971 11.1293 6.94371 11.5363 7.00971 12.015L7.01272 12.013ZM13.2617 12.013H17.1967C17.3099 11.6556 17.3929 11.2893 17.4447 10.918C17.4951 10.5331 17.5195 10.1452 17.5177 9.75702C17.5199 9.37911 17.4955 9.00151 17.4447 8.62701C17.3918 8.26606 17.3088 7.91017 17.1967 7.56302H13.2847C13.338 8.08502 13.3757 8.51035 13.3977 8.83902C13.4197 9.16768 13.4307 9.47334 13.4307 9.75601C13.4307 10.1093 13.4174 10.4567 13.3907 10.798C13.364 11.1394 13.32 11.545 13.2587 12.015L13.2617 12.013ZM13.0797 6.48901H16.8507C16.3353 5.32536 15.5402 4.30721 14.5361 3.52522C13.532 2.74323 12.3502 2.22169 11.0957 2.00702C11.5554 2.63196 11.9447 3.30569 12.2567 4.016C12.6052 4.81417 12.8797 5.64265 13.0767 6.49101L13.0797 6.48901ZM7.21871 6.48901H12.0047C11.7998 5.61207 11.4853 4.76441 11.0687 3.96602C10.6708 3.20006 10.1731 2.49021 9.58871 1.85501C9.03096 2.3779 8.57166 2.99672 8.23271 3.682C7.80004 4.58173 7.45932 5.52284 7.21571 6.49101L7.21871 6.48901ZM2.33471 6.48901H6.12071C6.30326 5.65981 6.56514 4.85008 6.90271 4.07101C7.21834 3.34905 7.60845 2.66199 8.06671 2.02101C6.82546 2.24402 5.65557 2.76074 4.65471 3.52801C3.65568 4.31681 2.85929 5.3326 2.33171 6.49101L2.33471 6.48901Z" fill="#E0E0E0"/>
</svg>
